<mxfile host="app.diagrams.net" modified="2021-08-22T23:37:45.286Z" agent="5.0 (X11)" etag="3oysLhFzNDA9Fx2s4M2W" version="14.8.1" type="github">
  <diagram name="Page-1" id="58cdce13-f638-feb5-8d6f-7d28b1aa9fa0">
    <mxGraphModel dx="957" dy="757" grid="1" gridSize="10" guides="1" tooltips="1" connect="1" arrows="1" fold="1" page="1" pageScale="1" pageWidth="1100" pageHeight="850" background="none" math="0" shadow="0">
      <root>
        <mxCell id="0" />
        <mxCell id="1" parent="0" />
        <mxCell id="QxDgz1g6ewxcLP_ypDdc-20" style="edgeStyle=orthogonalEdgeStyle;rounded=0;orthogonalLoop=1;jettySize=auto;html=1;entryX=0;entryY=0.5;entryDx=0;entryDy=0;" edge="1" parent="1" source="382b91b5511bd0f7-1" target="382b91b5511bd0f7-6">
          <mxGeometry relative="1" as="geometry" />
        </mxCell>
        <mxCell id="382b91b5511bd0f7-1" value="" style="ellipse;html=1;shape=startState;fillColor=#000000;strokeColor=#ff0000;rounded=1;shadow=0;comic=0;labelBackgroundColor=none;fontFamily=Verdana;fontSize=12;fontColor=#000000;align=center;direction=south;" parent="1" vertex="1">
          <mxGeometry x="360" y="125" width="30" height="30" as="geometry" />
        </mxCell>
        <mxCell id="QxDgz1g6ewxcLP_ypDdc-30" style="edgeStyle=orthogonalEdgeStyle;rounded=0;orthogonalLoop=1;jettySize=auto;html=1;entryX=0.5;entryY=0;entryDx=0;entryDy=0;" edge="1" parent="1" source="382b91b5511bd0f7-6" target="QxDgz1g6ewxcLP_ypDdc-28">
          <mxGeometry relative="1" as="geometry" />
        </mxCell>
        <mxCell id="QxDgz1g6ewxcLP_ypDdc-38" style="edgeStyle=orthogonalEdgeStyle;rounded=0;orthogonalLoop=1;jettySize=auto;html=1;exitX=1;exitY=0.5;exitDx=0;exitDy=0;entryX=0;entryY=0.5;entryDx=0;entryDy=0;" edge="1" parent="1" source="382b91b5511bd0f7-6" target="QxDgz1g6ewxcLP_ypDdc-21">
          <mxGeometry relative="1" as="geometry" />
        </mxCell>
        <mxCell id="382b91b5511bd0f7-6" value="Farmer" style="rounded=1;whiteSpace=wrap;html=1;arcSize=24;fillColor=#ffffc0;strokeColor=#ff0000;shadow=0;comic=0;labelBackgroundColor=none;fontFamily=Verdana;fontSize=12;fontColor=#000000;align=center;" parent="1" vertex="1">
          <mxGeometry x="480" y="110" width="120" height="60" as="geometry" />
        </mxCell>
        <mxCell id="2a3bc250acf0617d-7" value="State" style="swimlane;whiteSpace=wrap;html=1;rounded=1;shadow=0;comic=0;labelBackgroundColor=none;strokeWidth=1;fontFamily=Verdana;fontSize=12;align=center;" parent="1" vertex="1">
          <mxGeometry x="270" y="510" width="1890" height="200" as="geometry" />
        </mxCell>
        <mxCell id="QxDgz1g6ewxcLP_ypDdc-12" style="edgeStyle=orthogonalEdgeStyle;rounded=0;orthogonalLoop=1;jettySize=auto;html=1;exitX=1;exitY=0.5;exitDx=0;exitDy=0;" edge="1" parent="2a3bc250acf0617d-7" source="382b91b5511bd0f7-8" target="3cde6dad864a17aa-1">
          <mxGeometry relative="1" as="geometry" />
        </mxCell>
        <mxCell id="382b91b5511bd0f7-8" value="Harvested&lt;span style=&quot;white-space: pre&quot;&gt;&lt;/span&gt;" style="rounded=1;whiteSpace=wrap;html=1;arcSize=24;fillColor=#ffffc0;strokeColor=#ff0000;shadow=0;comic=0;labelBackgroundColor=none;fontFamily=Verdana;fontSize=12;fontColor=#000000;align=center;" parent="2a3bc250acf0617d-7" vertex="1">
          <mxGeometry x="200" y="65" width="120" height="60" as="geometry" />
        </mxCell>
        <mxCell id="24f968d109e7d6b4-3" value="" style="ellipse;html=1;shape=endState;fillColor=#000000;strokeColor=#ff0000;rounded=1;shadow=0;comic=0;labelBackgroundColor=none;fontFamily=Verdana;fontSize=12;fontColor=#000000;align=center;" parent="2a3bc250acf0617d-7" vertex="1">
          <mxGeometry x="1710" y="80" width="30" height="30" as="geometry" />
        </mxCell>
        <mxCell id="QxDgz1g6ewxcLP_ypDdc-11" style="edgeStyle=orthogonalEdgeStyle;rounded=0;orthogonalLoop=1;jettySize=auto;html=1;entryX=0;entryY=0.5;entryDx=0;entryDy=0;" edge="1" parent="2a3bc250acf0617d-7" source="2a3bc250acf0617d-3" target="382b91b5511bd0f7-8">
          <mxGeometry relative="1" as="geometry" />
        </mxCell>
        <mxCell id="2a3bc250acf0617d-3" value="" style="ellipse;html=1;shape=startState;fillColor=#000000;strokeColor=#ff0000;rounded=1;shadow=0;comic=0;labelBackgroundColor=none;fontFamily=Verdana;fontSize=12;fontColor=#000000;align=center;direction=south;" parent="2a3bc250acf0617d-7" vertex="1">
          <mxGeometry x="75" y="80" width="30" height="30" as="geometry" />
        </mxCell>
        <mxCell id="QxDgz1g6ewxcLP_ypDdc-13" style="edgeStyle=orthogonalEdgeStyle;rounded=0;orthogonalLoop=1;jettySize=auto;html=1;exitX=1;exitY=0.5;exitDx=0;exitDy=0;entryX=0;entryY=0.5;entryDx=0;entryDy=0;" edge="1" parent="2a3bc250acf0617d-7" source="3cde6dad864a17aa-1" target="3cde6dad864a17aa-2">
          <mxGeometry relative="1" as="geometry" />
        </mxCell>
        <mxCell id="3cde6dad864a17aa-1" value="Processed" style="rounded=1;whiteSpace=wrap;html=1;arcSize=24;fillColor=#ffffc0;strokeColor=#ff0000;shadow=0;comic=0;labelBackgroundColor=none;fontFamily=Verdana;fontSize=12;fontColor=#000000;align=center;" parent="2a3bc250acf0617d-7" vertex="1">
          <mxGeometry x="370" y="65" width="120" height="60" as="geometry" />
        </mxCell>
        <mxCell id="QxDgz1g6ewxcLP_ypDdc-14" style="edgeStyle=orthogonalEdgeStyle;rounded=0;orthogonalLoop=1;jettySize=auto;html=1;exitX=1;exitY=0.5;exitDx=0;exitDy=0;" edge="1" parent="2a3bc250acf0617d-7" source="3cde6dad864a17aa-2" target="QxDgz1g6ewxcLP_ypDdc-1">
          <mxGeometry relative="1" as="geometry" />
        </mxCell>
        <mxCell id="3cde6dad864a17aa-2" value="Packed" style="rounded=1;whiteSpace=wrap;html=1;arcSize=24;fillColor=#ffffc0;strokeColor=#ff0000;shadow=0;comic=0;labelBackgroundColor=none;fontFamily=Verdana;fontSize=12;fontColor=#000000;align=center;" parent="2a3bc250acf0617d-7" vertex="1">
          <mxGeometry x="550" y="65" width="120" height="60" as="geometry" />
        </mxCell>
        <mxCell id="QxDgz1g6ewxcLP_ypDdc-15" style="edgeStyle=orthogonalEdgeStyle;rounded=0;orthogonalLoop=1;jettySize=auto;html=1;exitX=1;exitY=0.5;exitDx=0;exitDy=0;" edge="1" parent="2a3bc250acf0617d-7" source="QxDgz1g6ewxcLP_ypDdc-1" target="QxDgz1g6ewxcLP_ypDdc-3">
          <mxGeometry relative="1" as="geometry" />
        </mxCell>
        <mxCell id="QxDgz1g6ewxcLP_ypDdc-1" value="ForSale" style="rounded=1;whiteSpace=wrap;html=1;arcSize=24;fillColor=#ffffc0;strokeColor=#ff0000;shadow=0;comic=0;labelBackgroundColor=none;fontFamily=Verdana;fontSize=12;fontColor=#000000;align=center;" vertex="1" parent="2a3bc250acf0617d-7">
          <mxGeometry x="750" y="65" width="110" height="60" as="geometry" />
        </mxCell>
        <mxCell id="QxDgz1g6ewxcLP_ypDdc-16" style="edgeStyle=orthogonalEdgeStyle;rounded=0;orthogonalLoop=1;jettySize=auto;html=1;exitX=1;exitY=0.5;exitDx=0;exitDy=0;" edge="1" parent="2a3bc250acf0617d-7" source="QxDgz1g6ewxcLP_ypDdc-3" target="QxDgz1g6ewxcLP_ypDdc-4">
          <mxGeometry relative="1" as="geometry" />
        </mxCell>
        <mxCell id="QxDgz1g6ewxcLP_ypDdc-3" value="Sold" style="rounded=1;whiteSpace=wrap;html=1;arcSize=24;fillColor=#ffffc0;strokeColor=#ff0000;shadow=0;comic=0;labelBackgroundColor=none;fontFamily=Verdana;fontSize=12;fontColor=#000000;align=center;" vertex="1" parent="2a3bc250acf0617d-7">
          <mxGeometry x="940" y="65" width="110" height="60" as="geometry" />
        </mxCell>
        <mxCell id="QxDgz1g6ewxcLP_ypDdc-17" style="edgeStyle=orthogonalEdgeStyle;rounded=0;orthogonalLoop=1;jettySize=auto;html=1;exitX=1;exitY=0.5;exitDx=0;exitDy=0;entryX=0;entryY=0.5;entryDx=0;entryDy=0;" edge="1" parent="2a3bc250acf0617d-7" source="QxDgz1g6ewxcLP_ypDdc-4" target="QxDgz1g6ewxcLP_ypDdc-5">
          <mxGeometry relative="1" as="geometry" />
        </mxCell>
        <mxCell id="QxDgz1g6ewxcLP_ypDdc-4" value="Shipped" style="rounded=1;whiteSpace=wrap;html=1;arcSize=24;fillColor=#ffffc0;strokeColor=#ff0000;shadow=0;comic=0;labelBackgroundColor=none;fontFamily=Verdana;fontSize=12;fontColor=#000000;align=center;" vertex="1" parent="2a3bc250acf0617d-7">
          <mxGeometry x="1150" y="65" width="110" height="60" as="geometry" />
        </mxCell>
        <mxCell id="QxDgz1g6ewxcLP_ypDdc-18" style="edgeStyle=orthogonalEdgeStyle;rounded=0;orthogonalLoop=1;jettySize=auto;html=1;exitX=1;exitY=0.5;exitDx=0;exitDy=0;entryX=0;entryY=0.5;entryDx=0;entryDy=0;" edge="1" parent="2a3bc250acf0617d-7" source="QxDgz1g6ewxcLP_ypDdc-5" target="QxDgz1g6ewxcLP_ypDdc-6">
          <mxGeometry relative="1" as="geometry" />
        </mxCell>
        <mxCell id="QxDgz1g6ewxcLP_ypDdc-5" value="Received" style="rounded=1;whiteSpace=wrap;html=1;arcSize=24;fillColor=#ffffc0;strokeColor=#ff0000;shadow=0;comic=0;labelBackgroundColor=none;fontFamily=Verdana;fontSize=12;fontColor=#000000;align=center;" vertex="1" parent="2a3bc250acf0617d-7">
          <mxGeometry x="1320" y="65" width="110" height="60" as="geometry" />
        </mxCell>
        <mxCell id="QxDgz1g6ewxcLP_ypDdc-19" style="edgeStyle=orthogonalEdgeStyle;rounded=0;orthogonalLoop=1;jettySize=auto;html=1;exitX=1;exitY=0.5;exitDx=0;exitDy=0;entryX=0;entryY=0.5;entryDx=0;entryDy=0;" edge="1" parent="2a3bc250acf0617d-7" source="QxDgz1g6ewxcLP_ypDdc-6" target="24f968d109e7d6b4-3">
          <mxGeometry relative="1" as="geometry" />
        </mxCell>
        <mxCell id="QxDgz1g6ewxcLP_ypDdc-6" value="Purchased" style="rounded=1;whiteSpace=wrap;html=1;arcSize=24;fillColor=#ffffc0;strokeColor=#ff0000;shadow=0;comic=0;labelBackgroundColor=none;fontFamily=Verdana;fontSize=12;fontColor=#000000;align=center;" vertex="1" parent="2a3bc250acf0617d-7">
          <mxGeometry x="1500" y="65" width="110" height="60" as="geometry" />
        </mxCell>
        <mxCell id="QxDgz1g6ewxcLP_ypDdc-37" style="edgeStyle=orthogonalEdgeStyle;rounded=0;orthogonalLoop=1;jettySize=auto;html=1;entryX=0.5;entryY=0;entryDx=0;entryDy=0;" edge="1" parent="1" source="QxDgz1g6ewxcLP_ypDdc-21" target="QxDgz1g6ewxcLP_ypDdc-33">
          <mxGeometry relative="1" as="geometry" />
        </mxCell>
        <mxCell id="QxDgz1g6ewxcLP_ypDdc-39" style="edgeStyle=orthogonalEdgeStyle;rounded=0;orthogonalLoop=1;jettySize=auto;html=1;exitX=1;exitY=0.5;exitDx=0;exitDy=0;entryX=0;entryY=0.5;entryDx=0;entryDy=0;" edge="1" parent="1" source="QxDgz1g6ewxcLP_ypDdc-21" target="QxDgz1g6ewxcLP_ypDdc-22">
          <mxGeometry relative="1" as="geometry" />
        </mxCell>
        <mxCell id="QxDgz1g6ewxcLP_ypDdc-21" value="Farmer" style="rounded=1;whiteSpace=wrap;html=1;arcSize=24;fillColor=#ffffc0;strokeColor=#ff0000;shadow=0;comic=0;labelBackgroundColor=none;fontFamily=Verdana;fontSize=12;fontColor=#000000;align=center;" vertex="1" parent="1">
          <mxGeometry x="650" y="110" width="120" height="60" as="geometry" />
        </mxCell>
        <mxCell id="QxDgz1g6ewxcLP_ypDdc-42" style="edgeStyle=orthogonalEdgeStyle;rounded=0;orthogonalLoop=1;jettySize=auto;html=1;entryX=0.5;entryY=0;entryDx=0;entryDy=0;" edge="1" parent="1" source="QxDgz1g6ewxcLP_ypDdc-22" target="QxDgz1g6ewxcLP_ypDdc-40">
          <mxGeometry relative="1" as="geometry" />
        </mxCell>
        <mxCell id="QxDgz1g6ewxcLP_ypDdc-73" style="edgeStyle=orthogonalEdgeStyle;rounded=0;orthogonalLoop=1;jettySize=auto;html=1;" edge="1" parent="1" source="QxDgz1g6ewxcLP_ypDdc-22" target="QxDgz1g6ewxcLP_ypDdc-23">
          <mxGeometry relative="1" as="geometry" />
        </mxCell>
        <mxCell id="QxDgz1g6ewxcLP_ypDdc-22" value="Farmer" style="rounded=1;whiteSpace=wrap;html=1;arcSize=24;fillColor=#ffffc0;strokeColor=#ff0000;shadow=0;comic=0;labelBackgroundColor=none;fontFamily=Verdana;fontSize=12;fontColor=#000000;align=center;" vertex="1" parent="1">
          <mxGeometry x="820" y="110" width="120" height="60" as="geometry" />
        </mxCell>
        <mxCell id="QxDgz1g6ewxcLP_ypDdc-49" style="edgeStyle=orthogonalEdgeStyle;rounded=0;orthogonalLoop=1;jettySize=auto;html=1;entryX=0.5;entryY=0;entryDx=0;entryDy=0;" edge="1" parent="1" source="QxDgz1g6ewxcLP_ypDdc-23" target="QxDgz1g6ewxcLP_ypDdc-47">
          <mxGeometry relative="1" as="geometry" />
        </mxCell>
        <mxCell id="QxDgz1g6ewxcLP_ypDdc-74" style="edgeStyle=orthogonalEdgeStyle;rounded=0;orthogonalLoop=1;jettySize=auto;html=1;entryX=0;entryY=0.5;entryDx=0;entryDy=0;" edge="1" parent="1" source="QxDgz1g6ewxcLP_ypDdc-23" target="QxDgz1g6ewxcLP_ypDdc-24">
          <mxGeometry relative="1" as="geometry" />
        </mxCell>
        <mxCell id="QxDgz1g6ewxcLP_ypDdc-23" value="Farmer" style="rounded=1;whiteSpace=wrap;html=1;arcSize=24;fillColor=#ffffc0;strokeColor=#ff0000;shadow=0;comic=0;labelBackgroundColor=none;fontFamily=Verdana;fontSize=12;fontColor=#000000;align=center;" vertex="1" parent="1">
          <mxGeometry x="1010" y="110" width="120" height="60" as="geometry" />
        </mxCell>
        <mxCell id="QxDgz1g6ewxcLP_ypDdc-54" style="edgeStyle=orthogonalEdgeStyle;rounded=0;orthogonalLoop=1;jettySize=auto;html=1;exitX=0.5;exitY=1;exitDx=0;exitDy=0;entryX=0.5;entryY=0;entryDx=0;entryDy=0;" edge="1" parent="1" source="QxDgz1g6ewxcLP_ypDdc-24" target="QxDgz1g6ewxcLP_ypDdc-52">
          <mxGeometry relative="1" as="geometry" />
        </mxCell>
        <mxCell id="QxDgz1g6ewxcLP_ypDdc-75" style="edgeStyle=orthogonalEdgeStyle;rounded=0;orthogonalLoop=1;jettySize=auto;html=1;" edge="1" parent="1" source="QxDgz1g6ewxcLP_ypDdc-24" target="QxDgz1g6ewxcLP_ypDdc-25">
          <mxGeometry relative="1" as="geometry" />
        </mxCell>
        <mxCell id="QxDgz1g6ewxcLP_ypDdc-24" value="Distributor" style="rounded=1;whiteSpace=wrap;html=1;arcSize=24;fillColor=#ffffc0;strokeColor=#ff0000;shadow=0;comic=0;labelBackgroundColor=none;fontFamily=Verdana;fontSize=12;fontColor=#000000;align=center;" vertex="1" parent="1">
          <mxGeometry x="1210" y="110" width="120" height="60" as="geometry" />
        </mxCell>
        <mxCell id="QxDgz1g6ewxcLP_ypDdc-63" style="edgeStyle=orthogonalEdgeStyle;rounded=0;orthogonalLoop=1;jettySize=auto;html=1;exitX=0.5;exitY=1;exitDx=0;exitDy=0;entryX=0.5;entryY=0;entryDx=0;entryDy=0;" edge="1" parent="1" source="QxDgz1g6ewxcLP_ypDdc-25" target="QxDgz1g6ewxcLP_ypDdc-57">
          <mxGeometry relative="1" as="geometry" />
        </mxCell>
        <mxCell id="QxDgz1g6ewxcLP_ypDdc-76" style="edgeStyle=orthogonalEdgeStyle;rounded=0;orthogonalLoop=1;jettySize=auto;html=1;exitX=1;exitY=0.5;exitDx=0;exitDy=0;" edge="1" parent="1" source="QxDgz1g6ewxcLP_ypDdc-25" target="QxDgz1g6ewxcLP_ypDdc-26">
          <mxGeometry relative="1" as="geometry" />
        </mxCell>
        <mxCell id="QxDgz1g6ewxcLP_ypDdc-25" value="Distributor" style="rounded=1;whiteSpace=wrap;html=1;arcSize=24;fillColor=#ffffc0;strokeColor=#ff0000;shadow=0;comic=0;labelBackgroundColor=none;fontFamily=Verdana;fontSize=12;fontColor=#000000;align=center;" vertex="1" parent="1">
          <mxGeometry x="1410" y="110" width="120" height="60" as="geometry" />
        </mxCell>
        <mxCell id="QxDgz1g6ewxcLP_ypDdc-68" style="edgeStyle=orthogonalEdgeStyle;rounded=0;orthogonalLoop=1;jettySize=auto;html=1;exitX=0.5;exitY=1;exitDx=0;exitDy=0;entryX=0.5;entryY=0;entryDx=0;entryDy=0;" edge="1" parent="1" source="QxDgz1g6ewxcLP_ypDdc-26" target="QxDgz1g6ewxcLP_ypDdc-61">
          <mxGeometry relative="1" as="geometry" />
        </mxCell>
        <mxCell id="QxDgz1g6ewxcLP_ypDdc-77" style="edgeStyle=orthogonalEdgeStyle;rounded=0;orthogonalLoop=1;jettySize=auto;html=1;" edge="1" parent="1" source="QxDgz1g6ewxcLP_ypDdc-26" target="QxDgz1g6ewxcLP_ypDdc-27">
          <mxGeometry relative="1" as="geometry" />
        </mxCell>
        <mxCell id="QxDgz1g6ewxcLP_ypDdc-26" value="Retailer" style="rounded=1;whiteSpace=wrap;html=1;arcSize=24;fillColor=#ffffc0;strokeColor=#ff0000;shadow=0;comic=0;labelBackgroundColor=none;fontFamily=Verdana;fontSize=12;fontColor=#000000;align=center;" vertex="1" parent="1">
          <mxGeometry x="1590" y="110" width="120" height="60" as="geometry" />
        </mxCell>
        <mxCell id="QxDgz1g6ewxcLP_ypDdc-69" style="edgeStyle=orthogonalEdgeStyle;rounded=0;orthogonalLoop=1;jettySize=auto;html=1;exitX=0.5;exitY=1;exitDx=0;exitDy=0;entryX=0.5;entryY=0;entryDx=0;entryDy=0;" edge="1" parent="1" source="QxDgz1g6ewxcLP_ypDdc-27" target="QxDgz1g6ewxcLP_ypDdc-62">
          <mxGeometry relative="1" as="geometry" />
        </mxCell>
        <mxCell id="QxDgz1g6ewxcLP_ypDdc-27" value="Consumer" style="rounded=1;whiteSpace=wrap;html=1;arcSize=24;fillColor=#ffffc0;strokeColor=#ff0000;shadow=0;comic=0;labelBackgroundColor=none;fontFamily=Verdana;fontSize=12;fontColor=#000000;align=center;" vertex="1" parent="1">
          <mxGeometry x="1770" y="110" width="120" height="60" as="geometry" />
        </mxCell>
        <mxCell id="QxDgz1g6ewxcLP_ypDdc-31" style="edgeStyle=orthogonalEdgeStyle;rounded=0;orthogonalLoop=1;jettySize=auto;html=1;" edge="1" parent="1" source="QxDgz1g6ewxcLP_ypDdc-28" target="QxDgz1g6ewxcLP_ypDdc-29">
          <mxGeometry relative="1" as="geometry" />
        </mxCell>
        <mxCell id="QxDgz1g6ewxcLP_ypDdc-28" value="onlyFarmer" style="rounded=0;whiteSpace=wrap;html=1;" vertex="1" parent="1">
          <mxGeometry x="480" y="230" width="120" height="50" as="geometry" />
        </mxCell>
        <mxCell id="QxDgz1g6ewxcLP_ypDdc-32" style="edgeStyle=orthogonalEdgeStyle;rounded=0;orthogonalLoop=1;jettySize=auto;html=1;exitX=0.5;exitY=1;exitDx=0;exitDy=0;entryX=0.143;entryY=0.005;entryDx=0;entryDy=0;entryPerimeter=0;" edge="1" parent="1" source="QxDgz1g6ewxcLP_ypDdc-29" target="2a3bc250acf0617d-7">
          <mxGeometry relative="1" as="geometry" />
        </mxCell>
        <mxCell id="QxDgz1g6ewxcLP_ypDdc-29" value="harvestItem" style="shape=parallelogram;perimeter=parallelogramPerimeter;whiteSpace=wrap;html=1;fixedSize=1;" vertex="1" parent="1">
          <mxGeometry x="480" y="350" width="120" height="60" as="geometry" />
        </mxCell>
        <mxCell id="QxDgz1g6ewxcLP_ypDdc-36" style="edgeStyle=orthogonalEdgeStyle;rounded=0;orthogonalLoop=1;jettySize=auto;html=1;" edge="1" parent="1" source="QxDgz1g6ewxcLP_ypDdc-33" target="QxDgz1g6ewxcLP_ypDdc-34">
          <mxGeometry relative="1" as="geometry" />
        </mxCell>
        <mxCell id="QxDgz1g6ewxcLP_ypDdc-33" value="&lt;div&gt;onlyFarmer&lt;/div&gt;&lt;div&gt;havested&lt;br&gt;&lt;/div&gt;" style="rounded=0;whiteSpace=wrap;html=1;" vertex="1" parent="1">
          <mxGeometry x="650" y="230" width="120" height="50" as="geometry" />
        </mxCell>
        <mxCell id="QxDgz1g6ewxcLP_ypDdc-35" style="edgeStyle=orthogonalEdgeStyle;rounded=0;orthogonalLoop=1;jettySize=auto;html=1;entryX=0.233;entryY=-0.01;entryDx=0;entryDy=0;entryPerimeter=0;" edge="1" parent="1" source="QxDgz1g6ewxcLP_ypDdc-34" target="2a3bc250acf0617d-7">
          <mxGeometry relative="1" as="geometry" />
        </mxCell>
        <mxCell id="QxDgz1g6ewxcLP_ypDdc-34" value="processItem" style="shape=parallelogram;perimeter=parallelogramPerimeter;whiteSpace=wrap;html=1;fixedSize=1;" vertex="1" parent="1">
          <mxGeometry x="650" y="350" width="120" height="60" as="geometry" />
        </mxCell>
        <mxCell id="QxDgz1g6ewxcLP_ypDdc-45" style="edgeStyle=orthogonalEdgeStyle;rounded=0;orthogonalLoop=1;jettySize=auto;html=1;entryX=0.5;entryY=0;entryDx=0;entryDy=0;" edge="1" parent="1" source="QxDgz1g6ewxcLP_ypDdc-40" target="QxDgz1g6ewxcLP_ypDdc-41">
          <mxGeometry relative="1" as="geometry" />
        </mxCell>
        <mxCell id="QxDgz1g6ewxcLP_ypDdc-40" value="&lt;div&gt;onlyFarmer&lt;/div&gt;&lt;div&gt;processed&lt;br&gt;&lt;/div&gt;" style="rounded=0;whiteSpace=wrap;html=1;" vertex="1" parent="1">
          <mxGeometry x="820" y="230" width="120" height="50" as="geometry" />
        </mxCell>
        <mxCell id="QxDgz1g6ewxcLP_ypDdc-46" style="edgeStyle=orthogonalEdgeStyle;rounded=0;orthogonalLoop=1;jettySize=auto;html=1;exitX=0.5;exitY=1;exitDx=0;exitDy=0;entryX=0.323;entryY=-0.005;entryDx=0;entryDy=0;entryPerimeter=0;" edge="1" parent="1" source="QxDgz1g6ewxcLP_ypDdc-41" target="2a3bc250acf0617d-7">
          <mxGeometry relative="1" as="geometry" />
        </mxCell>
        <mxCell id="QxDgz1g6ewxcLP_ypDdc-41" value="packItem" style="shape=parallelogram;perimeter=parallelogramPerimeter;whiteSpace=wrap;html=1;fixedSize=1;" vertex="1" parent="1">
          <mxGeometry x="820" y="350" width="120" height="60" as="geometry" />
        </mxCell>
        <mxCell id="QxDgz1g6ewxcLP_ypDdc-50" style="edgeStyle=orthogonalEdgeStyle;rounded=0;orthogonalLoop=1;jettySize=auto;html=1;exitX=0.5;exitY=1;exitDx=0;exitDy=0;entryX=0.5;entryY=0;entryDx=0;entryDy=0;" edge="1" parent="1" source="QxDgz1g6ewxcLP_ypDdc-47" target="QxDgz1g6ewxcLP_ypDdc-48">
          <mxGeometry relative="1" as="geometry" />
        </mxCell>
        <mxCell id="QxDgz1g6ewxcLP_ypDdc-47" value="&lt;div&gt;onlyFarmer&lt;/div&gt;&lt;div&gt;packed&lt;br&gt;&lt;/div&gt;" style="rounded=0;whiteSpace=wrap;html=1;" vertex="1" parent="1">
          <mxGeometry x="1010" y="230" width="120" height="50" as="geometry" />
        </mxCell>
        <mxCell id="QxDgz1g6ewxcLP_ypDdc-51" style="edgeStyle=orthogonalEdgeStyle;rounded=0;orthogonalLoop=1;jettySize=auto;html=1;exitX=0.5;exitY=1;exitDx=0;exitDy=0;entryX=0.423;entryY=-0.01;entryDx=0;entryDy=0;entryPerimeter=0;" edge="1" parent="1" source="QxDgz1g6ewxcLP_ypDdc-48" target="2a3bc250acf0617d-7">
          <mxGeometry relative="1" as="geometry" />
        </mxCell>
        <mxCell id="QxDgz1g6ewxcLP_ypDdc-48" value="sellItem" style="shape=parallelogram;perimeter=parallelogramPerimeter;whiteSpace=wrap;html=1;fixedSize=1;" vertex="1" parent="1">
          <mxGeometry x="1010" y="350" width="120" height="60" as="geometry" />
        </mxCell>
        <mxCell id="QxDgz1g6ewxcLP_ypDdc-55" style="edgeStyle=orthogonalEdgeStyle;rounded=0;orthogonalLoop=1;jettySize=auto;html=1;exitX=0.5;exitY=1;exitDx=0;exitDy=0;entryX=0.5;entryY=0;entryDx=0;entryDy=0;" edge="1" parent="1" source="QxDgz1g6ewxcLP_ypDdc-52" target="QxDgz1g6ewxcLP_ypDdc-53">
          <mxGeometry relative="1" as="geometry" />
        </mxCell>
        <mxCell id="QxDgz1g6ewxcLP_ypDdc-52" value="&lt;div&gt;onlyDistributor&lt;/div&gt;&lt;div&gt;forSale&lt;/div&gt;&lt;div&gt;paidEnough&lt;/div&gt;&lt;div&gt;checkValue&lt;span style=&quot;white-space: pre&quot;&gt;&lt;/span&gt;&lt;br&gt;&lt;/div&gt;" style="rounded=0;whiteSpace=wrap;html=1;" vertex="1" parent="1">
          <mxGeometry x="1210" y="220" width="120" height="70" as="geometry" />
        </mxCell>
        <mxCell id="QxDgz1g6ewxcLP_ypDdc-56" style="edgeStyle=orthogonalEdgeStyle;rounded=0;orthogonalLoop=1;jettySize=auto;html=1;exitX=0.5;exitY=1;exitDx=0;exitDy=0;entryX=0.529;entryY=-0.005;entryDx=0;entryDy=0;entryPerimeter=0;" edge="1" parent="1" source="QxDgz1g6ewxcLP_ypDdc-53" target="2a3bc250acf0617d-7">
          <mxGeometry relative="1" as="geometry" />
        </mxCell>
        <mxCell id="QxDgz1g6ewxcLP_ypDdc-53" value="buyItem" style="shape=parallelogram;perimeter=parallelogramPerimeter;whiteSpace=wrap;html=1;fixedSize=1;" vertex="1" parent="1">
          <mxGeometry x="1210" y="350" width="120" height="60" as="geometry" />
        </mxCell>
        <mxCell id="QxDgz1g6ewxcLP_ypDdc-64" style="edgeStyle=orthogonalEdgeStyle;rounded=0;orthogonalLoop=1;jettySize=auto;html=1;exitX=0.5;exitY=1;exitDx=0;exitDy=0;entryX=0.5;entryY=0;entryDx=0;entryDy=0;" edge="1" parent="1" source="QxDgz1g6ewxcLP_ypDdc-57" target="QxDgz1g6ewxcLP_ypDdc-58">
          <mxGeometry relative="1" as="geometry" />
        </mxCell>
        <mxCell id="QxDgz1g6ewxcLP_ypDdc-57" value="&lt;div&gt;onlyDistributor&lt;/div&gt;&lt;div&gt;sold&lt;br&gt;&lt;/div&gt;" style="rounded=0;whiteSpace=wrap;html=1;" vertex="1" parent="1">
          <mxGeometry x="1410" y="230" width="120" height="50" as="geometry" />
        </mxCell>
        <mxCell id="QxDgz1g6ewxcLP_ypDdc-65" style="edgeStyle=orthogonalEdgeStyle;rounded=0;orthogonalLoop=1;jettySize=auto;html=1;exitX=0.5;exitY=1;exitDx=0;exitDy=0;entryX=0.635;entryY=0;entryDx=0;entryDy=0;entryPerimeter=0;" edge="1" parent="1" source="QxDgz1g6ewxcLP_ypDdc-58" target="2a3bc250acf0617d-7">
          <mxGeometry relative="1" as="geometry" />
        </mxCell>
        <mxCell id="QxDgz1g6ewxcLP_ypDdc-58" value="shipItem" style="shape=parallelogram;perimeter=parallelogramPerimeter;whiteSpace=wrap;html=1;fixedSize=1;" vertex="1" parent="1">
          <mxGeometry x="1410" y="350" width="120" height="60" as="geometry" />
        </mxCell>
        <mxCell id="QxDgz1g6ewxcLP_ypDdc-66" style="edgeStyle=orthogonalEdgeStyle;rounded=0;orthogonalLoop=1;jettySize=auto;html=1;exitX=0.5;exitY=1;exitDx=0;exitDy=0;entryX=0.73;entryY=-0.01;entryDx=0;entryDy=0;entryPerimeter=0;" edge="1" parent="1" source="QxDgz1g6ewxcLP_ypDdc-59" target="2a3bc250acf0617d-7">
          <mxGeometry relative="1" as="geometry" />
        </mxCell>
        <mxCell id="QxDgz1g6ewxcLP_ypDdc-59" value="receiveItem" style="shape=parallelogram;perimeter=parallelogramPerimeter;whiteSpace=wrap;html=1;fixedSize=1;" vertex="1" parent="1">
          <mxGeometry x="1590" y="350" width="120" height="60" as="geometry" />
        </mxCell>
        <mxCell id="QxDgz1g6ewxcLP_ypDdc-72" style="edgeStyle=orthogonalEdgeStyle;rounded=0;orthogonalLoop=1;jettySize=auto;html=1;entryX=0.825;entryY=0;entryDx=0;entryDy=0;entryPerimeter=0;" edge="1" parent="1" source="QxDgz1g6ewxcLP_ypDdc-60" target="2a3bc250acf0617d-7">
          <mxGeometry relative="1" as="geometry">
            <Array as="points">
              <mxPoint x="1830" y="460" />
            </Array>
          </mxGeometry>
        </mxCell>
        <mxCell id="QxDgz1g6ewxcLP_ypDdc-60" value="purchaseItem" style="shape=parallelogram;perimeter=parallelogramPerimeter;whiteSpace=wrap;html=1;fixedSize=1;" vertex="1" parent="1">
          <mxGeometry x="1770" y="350" width="120" height="60" as="geometry" />
        </mxCell>
        <mxCell id="QxDgz1g6ewxcLP_ypDdc-67" style="edgeStyle=orthogonalEdgeStyle;rounded=0;orthogonalLoop=1;jettySize=auto;html=1;exitX=0.5;exitY=1;exitDx=0;exitDy=0;entryX=0.5;entryY=0;entryDx=0;entryDy=0;" edge="1" parent="1" source="QxDgz1g6ewxcLP_ypDdc-61" target="QxDgz1g6ewxcLP_ypDdc-59">
          <mxGeometry relative="1" as="geometry" />
        </mxCell>
        <mxCell id="QxDgz1g6ewxcLP_ypDdc-61" value="&lt;div&gt;onlyRetailer&lt;/div&gt;&lt;div&gt;shipped&lt;br&gt;&lt;/div&gt;" style="rounded=0;whiteSpace=wrap;html=1;" vertex="1" parent="1">
          <mxGeometry x="1590" y="230" width="120" height="50" as="geometry" />
        </mxCell>
        <mxCell id="QxDgz1g6ewxcLP_ypDdc-70" value="" style="edgeStyle=orthogonalEdgeStyle;rounded=0;orthogonalLoop=1;jettySize=auto;html=1;" edge="1" parent="1" source="QxDgz1g6ewxcLP_ypDdc-62" target="QxDgz1g6ewxcLP_ypDdc-60">
          <mxGeometry relative="1" as="geometry" />
        </mxCell>
        <mxCell id="QxDgz1g6ewxcLP_ypDdc-62" value="&lt;div&gt;onlyConsumer&lt;/div&gt;&lt;div&gt;received&lt;br&gt;&lt;/div&gt;" style="rounded=0;whiteSpace=wrap;html=1;" vertex="1" parent="1">
          <mxGeometry x="1770" y="230" width="120" height="50" as="geometry" />
        </mxCell>
      </root>
    </mxGraphModel>
  </diagram>
</mxfile>
